<svg xmlns="http://www.w3.org/2000/svg" viewBox="-291.8 385.2 22.7 22.7"><path fill="#FFF" d="M-280.5 407.8c-6.3 0-11.3-5.1-11.3-11.3s5.1-11.3 11.3-11.3 11.3 5.1 11.3 11.3-5 11.3-11.3 11.3zm9.3-10.1c-2.2-.3-4.2-.3-6 0 .7 2.1 1.3 4.3 1.8 6.7 2.3-1.6 3.8-3.9 4.2-6.7zm-5.9 7.5c-.4-2.6-1.1-5-1.9-7.2-3 .9-5.3 2.8-7.2 5.8 1.6 1.2 3.6 2 5.7 2 1.2.1 2.3-.2 3.4-.6zm-12.8-8.7c0 2.3.8 4.4 2.2 6.1 2.4-3.5 5-5.3 8-6.1-.2-.6-.5-1.1-.8-1.7-2.6.8-5.7 1.2-9.4 1.4.1.1 0 .2 0 .3zm.3-2c2.9-.1 5.8-.5 8.5-1.3-1-1.8-2.2-3.5-3.5-5.1-2.6 1.3-4.4 3.6-5 6.4zm9.1-7.4c-.8 0-1.6.1-2.4.3 1.3 1.4 2.5 3.2 3.5 5.2 1.8-.8 3.5-1.8 4.9-3.2-1.5-1.4-3.7-2.3-6-2.3zm7.2 3.5c-1.5 1.5-3.3 2.7-5.3 3.5.3.6.5 1.2.8 1.9 2.1-.3 4.3-.3 6.6 0-.1-2.1-.8-3.9-2.1-5.4z"/></svg>