<?xml version="1.0" encoding="utf-8"?>
<!-- Generator: Adobe Illustrator 18.1.1, SVG Export Plug-In . SVG Version: 6.00 Build 0)  -->
<svg version="1.1" id="Layer_1" xmlns="http://www.w3.org/2000/svg" xmlns:xlink="http://www.w3.org/1999/xlink" x="0px" y="0px"
	 viewBox="-291.8 385.2 22.7 22.7" enable-background="new -291.8 385.2 22.7 22.7" xml:space="preserve">
<path fill="#FFFFFF" d="M-280.5,407.8c-6.3,0-11.3-5.1-11.3-11.3s5.1-11.3,11.3-11.3s11.3,5.1,11.3,11.3S-274.2,407.8-280.5,407.8z
	 M-271.2,397.7c-2.2-0.3-4.2-0.3-6,0c0.7,2.1,1.3,4.3,1.8,6.7C-273.1,402.8-271.6,400.5-271.2,397.7z M-277.1,405.2
	c-0.4-2.6-1.1-5-1.9-7.2c-3,0.9-5.3,2.8-7.2,5.8c1.6,1.2,3.6,2,5.7,2C-279.3,405.9-278.2,405.6-277.1,405.2z M-289.9,396.5
	c0,2.3,0.8,4.4,2.2,6.1c2.4-3.5,5-5.3,8-6.1c-0.2-0.6-0.5-1.1-0.8-1.7c-2.6,0.8-5.7,1.2-9.4,1.4
	C-289.8,396.3-289.9,396.4-289.9,396.5z M-289.6,394.5c2.9-0.1,5.8-0.5,8.5-1.3c-1-1.8-2.2-3.5-3.5-5.1
	C-287.2,389.4-289,391.7-289.6,394.5z M-280.5,387.1c-0.8,0-1.6,0.1-2.4,0.3c1.3,1.4,2.5,3.2,3.5,5.2c1.8-0.8,3.5-1.8,4.9-3.2
	C-276,388-278.2,387.1-280.5,387.1z M-273.3,390.6c-1.5,1.5-3.3,2.7-5.3,3.5c0.3,0.6,0.5,1.2,0.8,1.9c2.1-0.3,4.3-0.3,6.6,0
	C-271.3,393.9-272,392.1-273.3,390.6z"/>
</svg>
