<?xml version="1.0" encoding="utf-8"?>
<!-- Generator: Adobe Illustrator 18.1.1, SVG Export Plug-In . SVG Version: 6.00 Build 0)  -->
<svg version="1.1" xmlns="http://www.w3.org/2000/svg" xmlns:xlink="http://www.w3.org/1999/xlink" x="0px" y="0px"
	 viewBox="0 0 629.3 156.9" enable-background="new 0 0 629.3 156.9" xml:space="preserve">
<g id="kalkomey-85_x25__blk">
	<g>
		<path fill="#FFFFFF" d="M157.6,123.6c-6-6.7-14.2-17.1-21.4-25.8c-1.7-2.1-2.9-2.9-4-2.9c-0.7,0-1.2,0.1-2.1,0.4v14.5
			c0,8.6,1.2,9.4,9.5,10.2v3.4h-29.2V120c8.7-0.8,9.5-1.8,9.5-10.2V48.1c0-8.6-0.7-9.3-8.6-9.9V35c6.3-0.7,13.7-2.9,18.8-4.6v61.4
			c3.9-0.8,6.3-2.5,8.2-4.6c2.9-2.9,6.8-8,9.3-11.5c2.6-4,2.2-5.1-3.9-5.7v-3.4l26.6-1.2v3.3c-9,1.6-11.7,2.9-16.8,7.7
			c-3.3,3.3-5.6,5.9-11.2,12.4c2.6,3.9,15.8,19.3,20.2,23.9c4.7,5,8.1,6.9,13,7.2v3.4L157.6,123.6z"/>
		<path fill="#FFFFFF" d="M218.6,124.9c-2,0-4.7-1.2-6.1-2.5c-1.7-1.8-2.5-3.7-3.1-5.9c-5.2,3.5-11.5,8.3-15.4,8.3
			c-9.3,0-15.7-7.7-15.7-15.9c0-6.4,3.4-10.4,10.6-12.9c7.8-2.6,17.4-6.1,20.2-8.5v-2.3c0-9.4-4.4-14.7-11-14.7
			c-2.6,0-4.6,1-5.9,2.6c-1.7,1.7-2.9,4.6-3.9,8.5c-0.5,2.2-2,3.1-3.8,3.1c-2.3,0-5.7-2.6-5.7-5.6c0-2,1.7-3.4,4.2-5.2
			c3.7-2.6,12.1-7.7,19.6-9.1c3.9,0,7.8,1.2,10.7,3.5c4.6,3.8,5.9,9.1,5.9,15.9v24.3c0,5.9,2.3,7.8,4.6,7.8c1.6,0,3.4-0.7,4.7-1.4
			l1.3,3.4L218.6,124.9z M209.1,92c-2.7,1.4-9,4.2-11.7,5.5c-5.1,2.3-8,4.8-8,9.5c0,6.8,5.2,10,9.3,10c3.4-0.1,8-2.3,10.4-4.7V92z"
			/>
		<path fill="#FFFFFF" d="M233.1,123.3V120c8.2-0.8,9.4-1.6,9.4-10.2V48.1c0-8.9-0.8-9.3-9-9.9V35c6.8-0.8,14.9-3,19.3-4.6v79.3
			c0,8.6,1,9.4,9.4,10.2v3.4H233.1z"/>
		<path fill="#FFFFFF" d="M314.5,123.6c-6-6.7-14.2-17.1-21.4-25.8c-1.7-2.1-2.9-2.9-4-2.9c-0.7,0-1.2,0.1-2.1,0.4v14.5
			c0,8.6,1.2,9.4,9.5,10.2v3.4h-29.2V120c8.7-0.8,9.5-1.8,9.5-10.2V48.1c0-8.6-0.7-9.3-8.6-9.9V35c6.3-0.7,13.7-2.9,18.8-4.6v61.4
			c3.9-0.8,6.3-2.5,8.2-4.6c2.9-2.9,6.8-8,9.3-11.5c2.6-4,2.2-5.1-3.9-5.7v-3.4l26.6-1.2v3.3c-9,1.6-11.7,2.9-16.8,7.7
			c-3.3,3.3-5.6,5.9-11.2,12.4c2.6,3.9,15.8,19.3,20.2,23.9c4.7,5,8.1,6.9,13,7.2v3.4L314.5,123.6z"/>
		<path fill="#FFFFFF" d="M357.2,64.8c16,0,28.2,12.9,28.2,29.1c0,21-15.4,31-28.3,31c-17.9,0-28.6-14.4-28.6-28.8
			c0-21.5,16.7-31.3,28.6-31.3H357.2z M355.6,69.1c-8,0-15,8.1-15,22.8c0,16.4,7.2,28.7,17.9,28.7c8.1,0,14.7-6,14.7-23.9
			c0-15.3-6.1-27.7-17.5-27.7H355.6z"/>
		<path fill="#FFFFFF" d="M458.4,123.3V120c7.7-0.8,9.1-1.3,9.1-10.6V87.6c0-9.3-3.3-15.1-11.5-15.1c-4.7,0-9.7,2.6-14.6,6.8
			c0.3,1.6,0.4,3,0.4,5.5v25.4c0,8.2,1.2,9,8.3,9.8v3.4h-27.9V120c8.1-0.8,9.3-1.4,9.3-10V87.5c0-9.7-3.4-15-11.4-15
			c-5.2,0-10.3,3.5-14.2,6.8v30.7c0,8.5,1,9.3,7.4,10v3.4h-27.5V120c8.6-0.8,9.8-1.6,9.8-10v-27c0-8.3-0.4-9-8-10.2v-3
			c5.7-1,12.4-2.7,18.1-5.3v10.6c2.7-1.8,5.6-4.2,9.5-6.7c3.4-2.1,6.5-3.5,10.7-3.5c6.3,0,11.9,3.9,14.5,10.7
			c3.8-2.9,7.6-5.3,10.8-7.3c2.7-1.8,6.1-3.4,9.8-3.4c10.2,0,16.6,7.2,16.6,20v25.2c0,8.7,1,9.3,8.5,10v3.4H458.4z"/>
		<path fill="#FFFFFF" d="M534.2,112.3c-8.2,10.3-17.2,12.7-21.3,12.7c-16,0-25.4-13-25.4-27.8c0-9,3.3-17,8.6-22.8
			c5.3-6,12.4-9.5,19-9.5h0.1c10.8,0,19.6,9.7,19.6,19.8c0,2.6-0.7,3.7-3,4.2c-2.2,0.4-18.5,1.7-34.1,2.2c0.1,17.7,10.3,25,19.4,25
			c5.2,0,10.2-2.1,14.9-6.5L534.2,112.3z M512,69.6c-5.9,0-11.6,5.5-13.6,16c7.3,0,14.5-0.1,22-0.4c2.3,0,3.1-0.8,3.1-2.6
			c0.1-6.8-4.3-13-11.5-13H512z"/>
		<path fill="#FFFFFF" d="M599.8,69.6c-6.9,1-8.1,2.1-11.6,9.5c-3.3,6.9-7.3,17.7-16.3,39.3c-8.7,20.9-11.6,28.3-13.4,35.4
			c-0.8,2.5-2.3,3.1-4.2,3.1c-3.7,0-7.4-3.1-7.4-6.3c0-2.1,1.2-3.3,3.4-4.7c4-2.6,6.7-5.7,9.7-11.6c2.5-4.6,3.5-7.3,4-9
			c0.7-2,0.7-3.7-0.1-5.9c-5.2-14.9-11.1-30.7-15-39.9c-2.7-7.2-4-8.9-11.2-9.9v-3.3h26.5v3.3c-6,1-6.7,2.3-5,7.2l11.9,32.7
			c3.7-8.9,9.3-24.3,12-32.5c1.6-5,0.7-6.4-6.8-7.4v-3.3h23.6V69.6z"/>
	</g>
	<g>
		<path fill="#FFFFFF" d="M602,34.8h-5.8v-1.9h13.9v1.9h-5.8v15.4H602V34.8z"/>
		<path fill="#FFFFFF" d="M612,32.9h3.2l5.5,14.6l5.5-14.6h3.2v17.3h-2.2V35.8h0l-5.4,14.4h-2l-5.4-14.4h0v14.4H612V32.9z"/>
	</g>
	<g>
		<path fill="#FFFFFF" d="M602,34.8h-5.8v-1.9h13.9v1.9h-5.8v15.4H602V34.8z"/>
		<path fill="#FFFFFF" d="M612,32.9h3.2l5.5,14.6l5.5-14.6h3.2v17.3h-2.2V35.8h0l-5.4,14.4h-2l-5.4-14.4h0v14.4H612V32.9z"/>
	</g>
</g>
<g id="icon_gradient">
	<g>
		<g>
			<path fill="#FFFFFF" d="M79,11c-20.5,4.5-42.4,31.7-47.3,62.7c23.5,6.8,46.4,2.1,65.5-10.5c0.7-2.7,1.2-5.5,1.5-8.4
				C100.3,37.1,92.3,20.8,79,11z M36.1,33.3C40.7,20.8,49.3,7.9,59.7,1.2c-1.2-0.3-5.5-0.9-6.9-1C39.8-0.9,29,4.5,19.5,12
				c-8.2,21.5-1.2,49.6,8.7,63.3C27.2,68.4,29.7,50.8,36.1,33.3z M6,26.9c-2.8,5.5-4.5,12.8-5,19.3c-2.4,27,17.6,50.8,44.6,53.1
				c0.7,0.1,2.1,0,2.9,0C21.4,86.7,8.6,65.8,6,26.9z M30.9,78.6c6.4,8.8,16.2,15.4,27.1,20.2c10.5-2.1,21.8-8.7,28.7-16.4
				C70.9,87,52,87.7,30.9,78.6z"/>
		</g>
		<g>
			<path fill="#FFFFFF" d="M79.3,10.4c-20.6,3.9-41.6,31-47.3,61.8c23.3,7.4,44.7,2.9,64.1-9.2c0.8-2.7,1.4-5.5,1.7-8.4
				C99.8,37.1,92.3,20.6,79.3,10.4z M58.6,1c-1.3-0.3-2.6-0.5-4-0.6C41.7-1.2,29.4,2.5,19.8,9.7C11,31,18,60.3,27.5,74.2
				C26.2,62.4,33.4,16.3,58.6,1z M6,25.6C3,31,1.1,37,0.3,43.5c-3.1,26.9,16.2,51.2,43.2,54.3c0.7,0.1,1.4,0.1,2.1,0.2
				C19.1,84.4,7.5,64.6,6,25.6z M29.3,76.7c6.1,9,17.2,15.9,27.9,20.8c10.5-1.8,20-6.9,27.2-14.4C68.6,87.1,50.2,86.4,29.3,76.7z"/>
		</g>
		<path fill="#FFFFFF" d="M5.6,27.1c-3.2,6.4-5,13.6-5,21.3c0,3.8,0.5,7.4,1.3,11c0-0.1,0-0.3,0-0.4c0-7.5,1.6-14.6,4.5-21.1
			C6.1,34.4,5.8,30.8,5.6,27.1z M20.2,10c-1.5,4.2-2.9,9.2-3.4,13.8c8.5-9.1,19.6-15.4,32.9-16.3c2.4-2.6,4.6-4.3,7.4-6.2
			c-2.8-0.5-5.1-0.7-8-0.7C37.8,0.5,28.4,3.8,20.2,10z"/>
		<path fill="#FFFFFF" d="M49.1,1.3c-11.3,0-20.6,3.3-28.9,9.5c-0.4,1-0.7,2.1-1.1,3.1c8.5-7,19.4-11.2,31.3-11.2
			c1.8,0,2.7-0.1,4.4,0.1c0.5-0.3,0.9-0.6,1.4-1C53.4,1.4,52,1.3,49.1,1.3z M5.6,27.8c-3.2,6.4-5,13.6-5,21.3c0,2.3,0.2,4.6,0.5,6.8
			C1.1,54.6,1,53.4,1,52.1c0-7.6,1.7-14.8,4.8-21.2C5.8,29.9,5.7,28.9,5.6,27.8z"/>
	</g>
</g>
</svg>
