<svg xmlns="http://www.w3.org/2000/svg" viewBox="0 0 629.3 156.9"><g fill="#FFF"><path d="M157.6 123.6c-6-6.7-14.2-17.1-21.4-25.8-1.7-2.1-2.9-2.9-4-2.9-.7 0-1.2.1-2.1.4v14.5c0 8.6 1.2 9.4 9.5 10.2v3.4h-29.2V120c8.7-.8 9.5-1.8 9.5-10.2V48.1c0-8.6-.7-9.3-8.6-9.9V35c6.3-.7 13.7-2.9 18.8-4.6v61.4c3.9-.8 6.3-2.5 8.2-4.6 2.9-2.9 6.8-8 9.3-11.5 2.6-4 2.2-5.1-3.9-5.7v-3.4l26.6-1.2v3.3c-9 1.6-11.7 2.9-16.8 7.7-3.3 3.3-5.6 5.9-11.2 12.4 2.6 3.9 15.8 19.3 20.2 23.9 4.7 5 8.1 6.9 13 7.2v3.4l-17.9.3zm61 1.3c-2 0-4.7-1.2-6.1-2.5-1.7-1.8-2.5-3.7-3.1-5.9-5.2 3.5-11.5 8.3-15.4 8.3-9.3 0-15.7-7.7-15.7-15.9 0-6.4 3.4-10.4 10.6-12.9 7.8-2.6 17.4-6.1 20.2-8.5v-2.3c0-9.4-4.4-14.7-11-14.7-2.6 0-4.6 1-5.9 2.6-1.7 1.7-2.9 4.6-3.9 8.5-.5 2.2-2 3.1-3.8 3.1-2.3 0-5.7-2.6-5.7-5.6 0-2 1.7-3.4 4.2-5.2 3.7-2.6 12.1-7.7 19.6-9.1 3.9 0 7.8 1.2 10.7 3.5 4.6 3.8 5.9 9.1 5.9 15.9v24.3c0 5.9 2.3 7.8 4.6 7.8 1.6 0 3.4-.7 4.7-1.4l1.3 3.4-11.2 6.6zM209.1 92c-2.7 1.4-9 4.2-11.7 5.5-5.1 2.3-8 4.8-8 9.5 0 6.8 5.2 10 9.3 10 3.4-.1 8-2.3 10.4-4.7V92zm24 31.3V120c8.2-.8 9.4-1.6 9.4-10.2V48.1c0-8.9-.8-9.3-9-9.9V35c6.8-.8 14.9-3 19.3-4.6v79.3c0 8.6 1 9.4 9.4 10.2v3.4h-29.1zm81.4.3c-6-6.7-14.2-17.1-21.4-25.8-1.7-2.1-2.9-2.9-4-2.9-.7 0-1.2.1-2.1.4v14.5c0 8.6 1.2 9.4 9.5 10.2v3.4h-29.2V120c8.7-.8 9.5-1.8 9.5-10.2V48.1c0-8.6-.7-9.3-8.6-9.9V35c6.3-.7 13.7-2.9 18.8-4.6v61.4c3.9-.8 6.3-2.5 8.2-4.6 2.9-2.9 6.8-8 9.3-11.5 2.6-4 2.2-5.1-3.9-5.7v-3.4l26.6-1.2v3.3c-9 1.6-11.7 2.9-16.8 7.7-3.3 3.3-5.6 5.9-11.2 12.4 2.6 3.9 15.8 19.3 20.2 23.9 4.7 5 8.1 6.9 13 7.2v3.4l-17.9.3z"/><path d="M357.2 64.8c16 0 28.2 12.9 28.2 29.1 0 21-15.4 31-28.3 31-17.9 0-28.6-14.4-28.6-28.8 0-21.5 16.7-31.3 28.6-31.3h.1zm-1.6 4.3c-8 0-15 8.1-15 22.8 0 16.4 7.2 28.7 17.9 28.7 8.1 0 14.7-6 14.7-23.9 0-15.3-6.1-27.7-17.5-27.7h-.1zm102.8 54.2V120c7.7-.8 9.1-1.3 9.1-10.6V87.6c0-9.3-3.3-15.1-11.5-15.1-4.7 0-9.7 2.6-14.6 6.8.3 1.6.4 3 .4 5.5v25.4c0 8.2 1.2 9 8.3 9.8v3.4h-27.9V120c8.1-.8 9.3-1.4 9.3-10V87.5c0-9.7-3.4-15-11.4-15-5.2 0-10.3 3.5-14.2 6.8V110c0 8.5 1 9.3 7.4 10v3.4h-27.5V120c8.6-.8 9.8-1.6 9.8-10V83c0-8.3-.4-9-8-10.2v-3c5.7-1 12.4-2.7 18.1-5.3v10.6c2.7-1.8 5.6-4.2 9.5-6.7 3.4-2.1 6.5-3.5 10.7-3.5 6.3 0 11.9 3.9 14.5 10.7 3.8-2.9 7.6-5.3 10.8-7.3 2.7-1.8 6.1-3.4 9.8-3.4 10.2 0 16.6 7.2 16.6 20v25.2c0 8.7 1 9.3 8.5 10v3.4h-27.7zm75.8-11C526 122.6 517 125 512.9 125c-16 0-25.4-13-25.4-27.8 0-9 3.3-17 8.6-22.8 5.3-6 12.4-9.5 19-9.5h.1c10.8 0 19.6 9.7 19.6 19.8 0 2.6-.7 3.7-3 4.2-2.2.4-18.5 1.7-34.1 2.2.1 17.7 10.3 25 19.4 25 5.2 0 10.2-2.1 14.9-6.5l2.2 2.7zM512 69.6c-5.9 0-11.6 5.5-13.6 16 7.3 0 14.5-.1 22-.4 2.3 0 3.1-.8 3.1-2.6.1-6.8-4.3-13-11.5-13zm87.8 0c-6.9 1-8.1 2.1-11.6 9.5-3.3 6.9-7.3 17.7-16.3 39.3-8.7 20.9-11.6 28.3-13.4 35.4-.8 2.5-2.3 3.1-4.2 3.1-3.7 0-7.4-3.1-7.4-6.3 0-2.1 1.2-3.3 3.4-4.7 4-2.6 6.7-5.7 9.7-11.6 2.5-4.6 3.5-7.3 4-9 .7-2 .7-3.7-.1-5.9-5.2-14.9-11.1-30.7-15-39.9-2.7-7.2-4-8.9-11.2-9.9v-3.3h26.5v3.3c-6 1-6.7 2.3-5 7.2l11.9 32.7c3.7-8.9 9.3-24.3 12-32.5 1.6-5 .7-6.4-6.8-7.4v-3.3h23.6v3.3zm2.2-34.8h-5.8v-1.9h13.9v1.9h-5.8v15.4H602V34.8zm10-1.9h3.2l5.5 14.6 5.5-14.6h3.2v17.3h-2.2V35.8l-5.4 14.4h-2l-5.4-14.4v14.4H612V32.9z"/><path d="M602 34.8h-5.8v-1.9h13.9v1.9h-5.8v15.4H602V34.8zm10-1.9h3.2l5.5 14.6 5.5-14.6h3.2v17.3h-2.2V35.8l-5.4 14.4h-2l-5.4-14.4v14.4H612V32.9z"/></g><path fill="#FFF" d="M79 11c-20.5 4.5-42.4 31.7-47.3 62.7 23.5 6.8 46.4 2.1 65.5-10.5.7-2.7 1.2-5.5 1.5-8.4 1.6-17.7-6.4-34-19.7-43.8zM36.1 33.3C40.7 20.8 49.3 7.9 59.7 1.2c-1.2-.3-5.5-.9-6.9-1C39.8-.9 29 4.5 19.5 12c-8.2 21.5-1.2 49.6 8.7 63.3-1-6.9 1.5-24.5 7.9-42zM6 26.9c-2.8 5.5-4.5 12.8-5 19.3-2.4 27 17.6 50.8 44.6 53.1.7.1 2.1 0 2.9 0C21.4 86.7 8.6 65.8 6 26.9zm24.9 51.7C37.3 87.4 47.1 94 58 98.8c10.5-2.1 21.8-8.7 28.7-16.4C70.9 87 52 87.7 30.9 78.6z"/><path fill="#FFF" d="M79.3 10.4c-20.6 3.9-41.6 31-47.3 61.8 23.3 7.4 44.7 2.9 64.1-9.2.8-2.7 1.4-5.5 1.7-8.4 2-17.5-5.5-34-18.5-44.2zM58.6 1c-1.3-.3-2.6-.5-4-.6-12.9-1.6-25.2 2.1-34.8 9.3C11 31 18 60.3 27.5 74.2 26.2 62.4 33.4 16.3 58.6 1zM6 25.6C3 31 1.1 37 .3 43.5c-3.1 26.9 16.2 51.2 43.2 54.3.7.1 1.4.1 2.1.2C19.1 84.4 7.5 64.6 6 25.6zm23.3 51.1c6.1 9 17.2 15.9 27.9 20.8 10.5-1.8 20-6.9 27.2-14.4-15.8 4-34.2 3.3-55.1-6.4z"/><path fill="#FFF" d="M5.6 27.1c-3.2 6.4-5 13.6-5 21.3 0 3.8.5 7.4 1.3 11V59c0-7.5 1.6-14.6 4.5-21.1-.3-3.5-.6-7.1-.8-10.8zM20.2 10c-1.5 4.2-2.9 9.2-3.4 13.8 8.5-9.1 19.6-15.4 32.9-16.3 2.4-2.6 4.6-4.3 7.4-6.2-2.8-.5-5.1-.7-8-.7C37.8.5 28.4 3.8 20.2 10z"/><path fill="#FFF" d="M49.1 1.3c-11.3 0-20.6 3.3-28.9 9.5-.4 1-.7 2.1-1.1 3.1 8.5-7 19.4-11.2 31.3-11.2 1.8 0 2.7-.1 4.4.1.5-.3.9-.6 1.4-1-2.8-.4-4.2-.5-7.1-.5zM5.6 27.8c-3.2 6.4-5 13.6-5 21.3 0 2.3.2 4.6.5 6.8 0-1.3-.1-2.5-.1-3.8 0-7.6 1.7-14.8 4.8-21.2 0-1-.1-2-.2-3.1z"/></svg>