<?xml version="1.0" encoding="utf-8"?>
<!-- Generator: Adobe Illustrator 18.1.1, SVG Export Plug-In . SVG Version: 6.00 Build 0)  -->
<svg version="1.1" id="Layer_1" xmlns="http://www.w3.org/2000/svg" xmlns:xlink="http://www.w3.org/1999/xlink" x="0px" y="0px"
	 viewBox="0 0 106.1 165.3" enable-background="new 0 0 106.1 165.3" xml:space="preserve">
<g>
	<text transform="matrix(0.9309 0 0 1 70.9968 164.4062)" fill="#EA4C89" font-family="'MalayalamSangamMN'" font-size="71.3467">o</text>
	<rect x="101.1" y="114.6" fill="#EA4C89" width="5" height="50"/>
</g>
<text transform="matrix(1 0 0 1 14.5627 164.6362)" fill="#444444" font-family="'MalayalamSangamMN'" font-size="72" letter-spacing="-3">re</text>
<g>
	<text transform="matrix(0.9309 0 0 1 70.9968 115.4062)" fill="#EA4C89" font-family="'MalayalamSangamMN'" font-size="71.3467">o</text>
	<rect x="101.1" y="65.6" fill="#EA4C89" width="5" height="50"/>
</g>
<g>
	<text transform="matrix(0.9309 0 0 1 32.9968 115.4062)" fill="#EA4C89" font-family="'MalayalamSangamMN'" font-size="71.3467">o</text>
	<rect x="63.1" y="12.6" fill="#EA4C89" width="5" height="103"/>
</g>
<g>
	<text transform="matrix(0.9309 0 0 1 -4.0032 115.4062)" fill="#EA4C89" font-family="'MalayalamSangamMN'" font-size="71.3467">o</text>
	<rect x="26.1" y="65.6" fill="#EA4C89" width="5" height="50"/>
</g>
<rect x="26.1" y="61.6" fill="#EA4C89" width="80" height="5"/>
<g>
	<g>
		<path fill="#444444" d="M41.9,27.5l13.4,22.6h-6.2L38.2,31.3l-6.6,6.6v12.2h-5.3V0h5.3v30.9l16.9-16.6H55L41.9,27.5z"/>
		<path fill="#444444" d="M68,0v6.2h-5.2V0H68z"/>
		<path fill="#444444" d="M77.4,14.3h5.3v5.4c1.9-2.1,3.9-3.7,6-4.6c2.2-0.9,4.4-1.4,6.6-1.4c1.7,0,3.2,0.2,4.5,0.7
			c1.3,0.5,2.4,1.2,3.4,2.1c0.9,0.9,1.6,2.1,2.1,3.4c0.5,1.3,0.7,2.8,0.7,4.5v25.7h-5.2V25c0-1.2-0.1-2.3-0.4-3.1
			c-0.3-0.9-0.7-1.5-1.3-2.1c-0.6-0.5-1.2-0.9-2.1-1.1c-0.8-0.2-1.7-0.4-2.7-0.4c-1.6,0-3.1,0.3-4.5,0.9c-1.4,0.6-2.6,1.3-3.7,2.3
			c-1.1,0.9-1.9,2-2.5,3.3c-0.6,1.2-0.9,2.5-0.9,3.8v21.5h-5.3V14.3z"/>
	</g>
</g>
</svg>
