<svg xmlns="http://www.w3.org/2000/svg" viewBox="0 0 106.1 165.3"><g fill="#EA4C89"><text transform="matrix(.9309 0 0 1 70.997 164.406)" font-family="'MalayalamSangamMN'" font-size="71.347">o</text><path d="M101.1 114.6h5v50h-5z"/></g><text transform="translate(14.563 164.636)" fill="#444" font-family="'MalayalamSangamMN'" font-size="72" letter-spacing="-3">re</text><g fill="#EA4C89"><text transform="matrix(.9309 0 0 1 70.997 115.406)" font-family="'MalayalamSangamMN'" font-size="71.347">o</text><path d="M101.1 65.6h5v50h-5z"/></g><g fill="#EA4C89"><text transform="matrix(.9309 0 0 1 32.997 115.406)" font-family="'MalayalamSangamMN'" font-size="71.347">o</text><path d="M63.1 12.6h5v103h-5z"/></g><g fill="#EA4C89"><text transform="matrix(.9309 0 0 1 -4.003 115.406)" font-family="'MalayalamSangamMN'" font-size="71.347">o</text><path d="M26.1 65.6h5v50h-5z"/></g><path fill="#EA4C89" d="M26.1 61.6h80v5h-80z"/><path d="M41.9 27.5l13.4 22.6h-6.2L38.2 31.3l-6.6 6.6v12.2h-5.3V0h5.3v30.9l16.9-16.6H55L41.9 27.5zM68 0v6.2h-5.2V0H68zm9.4 14.3h5.3v5.4c1.9-2.1 3.9-3.7 6-4.6 2.2-.9 4.4-1.4 6.6-1.4 1.7 0 3.2.2 4.5.7 1.3.5 2.4 1.2 3.4 2.1.9.9 1.6 2.1 2.1 3.4.5 1.3.7 2.8.7 4.5v25.7h-5.2V25c0-1.2-.1-2.3-.4-3.1-.3-.9-.7-1.5-1.3-2.1-.6-.5-1.2-.9-2.1-1.1-.8-.2-1.7-.4-2.7-.4-1.6 0-3.1.3-4.5.9-1.4.6-2.6 1.3-3.7 2.3-1.1.9-1.9 2-2.5 3.3-.6 1.2-.9 2.5-.9 3.8v21.5h-5.3V14.3z" fill="#444"/></svg>