<svg id="Layer_1" xmlns="http://www.w3.org/2000/svg" viewBox="0 0 163 30.3"><style>.st0{fill:#fff}</style><path class="st0" d="M0 0h7.6v30.3H0z"/><path class="st0" d="M6.6 22.7h23.7v7.6H6.6zM22.7 7.6h7.6v12.6h-7.6z"/><path class="st0" d="M10.1 7.6h13.6v7.6H10.1zm31.2 22.7c-1.4 0-2.4-1.1-2.4-2.4 0-1.3 1-2.4 2.4-2.4.9 0 1.4.3 1.8.7l-.5.6c-.4-.3-.8-.6-1.3-.6-.9 0-1.6.7-1.6 1.7 0 .9.7 1.7 1.6 1.7.6 0 .9-.2 1.4-.6l.5.5c-.4.5-1 .8-1.9.8zm6.5-.1l-1.2-1.6h-1v1.6h-.8v-4.7h2.1c1.1 0 1.7.6 1.7 1.5 0 .8-.5 1.3-1.1 1.4l1.3 1.8h-1zm-1-3.9h-1.2v1.6h1.2c.6 0 1-.3 1-.8 0-.6-.4-.8-1-.8zm7 0h-2.7v1.2h2.4v.7h-2.4v1.3h2.7v.7h-3.5v-4.7h3.5v.8zm6.2 3.9h-.9l-.5-1.1h-2.2l-.5 1.1h-.8l2.1-4.7h.8l2 4.7zm-2.5-3.7l-.8 1.9h1.6l-.8-1.9zm5.4 3.7H62v-3.9h-1.5v-.8h3.8v.8h-1.5v3.9zm3.9-4.7v4.7H66v-4.7h.8zm5.2 0h.9l-2 4.7h-.7l-2-4.7h.9l1.4 3.6 1.5-3.6zm5.9.8h-2.7v1.2h2.4v.7h-2.4v1.3h2.7v.7h-3.5v-4.7h3.5v.8zm4.1-.1h.8v1.3H84v.7h-1.3v1.3H82v-1.3h-1.3v-.7H82v-1.3zm6.6 4h-.8v-3.9h-1.5v-.8h3.8v.8h-1.5v3.9zm6.5-3.9h-2.7v1.2h2.4v.7h-2.4v1.3h2.7v.7h-3.5v-4.7h3.5v.8zm3.9 4c-1.4 0-2.4-1.1-2.4-2.4 0-1.3 1-2.4 2.4-2.4.9 0 1.4.3 1.8.7l-.5.6c-.4-.3-.8-.6-1.3-.6-.9 0-1.6.7-1.6 1.7 0 .9.7 1.7 1.6 1.7.6 0 .9-.2 1.4-.6l.5.5c-.5.5-1 .8-1.9.8zm4.2-2.1v2h-.8v-4.7h.8v2h2.2v-2h.8v4.7h-.8v-2h-2.2zm8.3-2.7h.8v4.7h-.7l-2.6-3.3v3.3h-.8v-4.7h.8l2.5 3.3v-3.3zm4.9 4.8c-1.4 0-2.5-1.1-2.5-2.4 0-1.3 1-2.4 2.5-2.4 1.4 0 2.5 1.1 2.5 2.4 0 1.3-1 2.4-2.5 2.4zm0-4.1c-.9 0-1.6.7-1.6 1.7 0 .9.7 1.7 1.6 1.7.9 0 1.6-.7 1.6-1.7 0-.9-.6-1.7-1.6-1.7zm4.2-.7h.8v4h2.5v.8h-3.3v-4.8zm6.8 4.8c-1.4 0-2.5-1.1-2.5-2.4 0-1.3 1-2.4 2.5-2.4 1.4 0 2.5 1.1 2.5 2.4-.1 1.3-1.1 2.4-2.5 2.4zm0-4.1c-.9 0-1.6.7-1.6 1.7 0 .9.7 1.7 1.6 1.7.9 0 1.6-.7 1.6-1.7 0-.9-.7-1.7-1.6-1.7zm6.3 4.1c-1.5 0-2.4-1-2.4-2.4 0-1.3 1-2.4 2.4-2.4.8 0 1.3.2 1.8.6l-.5.6c-.4-.3-.7-.5-1.3-.5-.9 0-1.5.8-1.5 1.7 0 1 .6 1.7 1.6 1.7.4 0 .8-.1 1.1-.4v-.9h-1.2v-.7h2v2c-.5.4-1.1.7-2 .7zm5.8-.1h-.8v-1.9l-1.9-2.8h1l1.3 2.1 1.3-2.1h.9l-1.9 2.8v1.9zm-99.9-10V7.6h2.8v10.1h6.3v2.5h-9.1zm16.4 0V7.6h2.8v12.6H56zm13.7-10.1v2.7h6v2.5h-6v4.9h-2.8V7.6h9.6v2.5h-6.8zm14.1 10.1V7.6h9.5V10h-6.8v2.6h5.9v2.5h-5.9v2.6h6.8v2.5h-9.5zm23.1 0h-6V7.6h5.8c2.6 0 4.2 1.3 4.2 3.3 0 1.4-.8 2.2-1.7 2.7 1.5.6 2.4 1.4 2.4 3.1 0 2.3-1.9 3.5-4.7 3.5zm1.2-8.9c0-.8-.6-1.3-1.8-1.3h-2.7v2.7h2.6c1.1 0 1.9-.4 1.9-1.4zm.7 5c0-.8-.6-1.4-2.1-1.4h-3.2v2.8h3.3c1.3 0 2-.4 2-1.4zm10.1 3.9V7.6h2.8v10.1h6.3v2.5h-9.1zm21.1.2c-3.4 0-5.5-1.9-5.5-5.6V7.6h2.8v7.1c0 2.1 1 3.1 2.7 3.1 1.7 0 2.7-1 2.7-3V7.6h2.8v7.1c0 3.8-2.1 5.7-5.5 5.7zm13.4-.2V7.6h9.5V10h-6.7v2.6h5.9v2.5h-5.9v2.6h6.8v2.5h-9.6z"/></svg>