<svg xmlns="http://www.w3.org/2000/svg" viewBox="0 0 144 144"><path fill="#FFF" d="M133.3 0H10.6C4.8 0 0 4.6 0 10.4v123.2c0 5.7 4.8 10.4 10.6 10.4h122.7c5.9 0 10.7-4.7 10.7-10.4V10.4C144 4.6 139.2 0 133.3 0zM42.7 122.7H21.3V54h21.4v68.7zM32 44.6c-6.8 0-12.4-5.6-12.4-12.4 0-6.8 5.5-12.4 12.4-12.4 6.8 0 12.4 5.5 12.4 12.4 0 6.8-5.5 12.4-12.4 12.4zm90.7 78.1h-21.3V89.3c0-8-.1-18.2-11.1-18.2-11.1 0-12.8 8.7-12.8 17.6v34H56.1V54h20.5v9.4h.3c2.8-5.4 9.8-11.1 20.2-11.1 21.6 0 25.6 14.2 25.6 32.7v37.7z"/></svg>