<?xml version="1.0" encoding="utf-8"?>
<!-- Generator: Adobe Illustrator 18.1.1, SVG Export Plug-In . SVG Version: 6.00 Build 0)  -->
<svg version="1.1" id="Layer_1" xmlns="http://www.w3.org/2000/svg" xmlns:xlink="http://www.w3.org/1999/xlink" x="0px" y="0px"
	 viewBox="0 0 269.1 339.5" enable-background="new 0 0 269.1 339.5" xml:space="preserve">
<path fill-rule="evenodd" clip-rule="evenodd" d="M56.7,31.1C340.3-27.3,205.4,141.8,35.6,144C25,176.6-1.7,203.7,0.1,203.3
	C340.9,133.7,355.8-79.2,56.7,31.1z"/>
<path fill-rule="evenodd" clip-rule="evenodd" d="M22.6,232.3c34.2-21.8,93.5-158.1,98.7-177.5c0.7-2.5,5-1,11.3-3.8
	c1.2-0.5,58.2,168.3,130.1,251.7c0.5,0.6-34,8.8-54.5,36.8c-0.2,0.3-72.3-148.9-84.3-265.5c-0.2-1.6-52,177.2-59.9,199.6
	c-0.2,0.6-4.2-23.8-40.2-40.7"/>
</svg>
