<?xml version="1.0" encoding="utf-8"?>
<!-- Generator: Adobe Illustrator 19.1.0, SVG Export Plug-In . SVG Version: 6.00 Build 0)  -->
<svg version="1.1" id="Layer_1" xmlns="http://www.w3.org/2000/svg" xmlns:xlink="http://www.w3.org/1999/xlink" x="0px" y="0px"
	 viewBox="0 0 163 30.3" style="enable-background:new 0 0 163 30.3;" xml:space="preserve">
<style type="text/css">
	.st0{fill:#FFFFFF;}
</style>
<rect class="st0" width="7.6" height="30.3"/>
<rect x="6.6" y="22.7" class="st0" width="23.7" height="7.6"/>
<rect x="22.7" y="7.6" class="st0" width="7.6" height="12.6"/>
<rect x="10.1" y="7.6" class="st0" width="13.6" height="7.6"/>
<path class="st0" d="M41.3,30.3c-1.4,0-2.4-1.1-2.4-2.4c0-1.3,1-2.4,2.4-2.4c0.9,0,1.4,0.3,1.8,0.7l-0.5,0.6
	c-0.4-0.3-0.8-0.6-1.3-0.6c-0.9,0-1.6,0.7-1.6,1.7c0,0.9,0.7,1.7,1.6,1.7c0.6,0,0.9-0.2,1.4-0.6l0.5,0.5
	C42.8,30,42.2,30.3,41.3,30.3z"/>
<path class="st0" d="M47.8,30.2l-1.2-1.6h-1v1.6h-0.8v-4.7h2.1c1.1,0,1.7,0.6,1.7,1.5c0,0.8-0.5,1.3-1.1,1.4l1.3,1.8H47.8z
	 M46.8,26.3h-1.2v1.6h1.2c0.6,0,1-0.3,1-0.8C47.8,26.5,47.4,26.3,46.8,26.3z"/>
<path class="st0" d="M53.8,26.3h-2.7v1.2h2.4v0.7h-2.4v1.3h2.7v0.7h-3.5v-4.7h3.5V26.3z"/>
<path class="st0" d="M60,30.2h-0.9l-0.5-1.1h-2.2l-0.5,1.1h-0.8l2.1-4.7h0.8L60,30.2z M57.5,26.5l-0.8,1.9h1.6L57.5,26.5z"/>
<path class="st0" d="M62.9,30.2H62v-3.9h-1.5v-0.8h3.8v0.8h-1.5V30.2z"/>
<path class="st0" d="M66.8,25.5v4.7H66v-4.7H66.8z"/>
<path class="st0" d="M72,25.5h0.9l-2,4.7h-0.7l-2-4.7h0.9l1.4,3.6L72,25.5z"/>
<path class="st0" d="M77.9,26.3h-2.7v1.2h2.4v0.7h-2.4v1.3h2.7v0.7h-3.5v-4.7h3.5V26.3z"/>
<path class="st0" d="M82,26.2h0.8v1.3H84v0.7h-1.3v1.3H82v-1.3h-1.3v-0.7H82V26.2z"/>
<path class="st0" d="M88.6,30.2h-0.8v-3.9h-1.5v-0.8h3.8v0.8h-1.5V30.2z"/>
<path class="st0" d="M95.1,26.3h-2.7v1.2h2.4v0.7h-2.4v1.3h2.7v0.7h-3.5v-4.7h3.5V26.3z"/>
<path class="st0" d="M99,30.3c-1.4,0-2.4-1.1-2.4-2.4c0-1.3,1-2.4,2.4-2.4c0.9,0,1.4,0.3,1.8,0.7l-0.5,0.6c-0.4-0.3-0.8-0.6-1.3-0.6
	c-0.9,0-1.6,0.7-1.6,1.7c0,0.9,0.7,1.7,1.6,1.7c0.6,0,0.9-0.2,1.4-0.6l0.5,0.5C100.4,30,99.9,30.3,99,30.3z"/>
<path class="st0" d="M103.2,28.2v2h-0.8v-4.7h0.8v2h2.2v-2h0.8v4.7h-0.8v-2H103.2z"/>
<path class="st0" d="M111.5,25.5h0.8v4.7h-0.7l-2.6-3.3v3.3h-0.8v-4.7h0.8l2.5,3.3V25.5z"/>
<path class="st0" d="M116.4,30.3c-1.4,0-2.5-1.1-2.5-2.4c0-1.3,1-2.4,2.5-2.4c1.4,0,2.5,1.1,2.5,2.4
	C118.9,29.2,117.9,30.3,116.4,30.3z M116.4,26.2c-0.9,0-1.6,0.7-1.6,1.7c0,0.9,0.7,1.7,1.6,1.7c0.9,0,1.6-0.7,1.6-1.7
	C118,27,117.4,26.2,116.4,26.2z"/>
<path class="st0" d="M120.6,25.5h0.8v4h2.5v0.8h-3.3V25.5z"/>
<path class="st0" d="M127.4,30.3c-1.4,0-2.5-1.1-2.5-2.4c0-1.3,1-2.4,2.5-2.4c1.4,0,2.5,1.1,2.5,2.4
	C129.8,29.2,128.8,30.3,127.4,30.3z M127.4,26.2c-0.9,0-1.6,0.7-1.6,1.7c0,0.9,0.7,1.7,1.6,1.7c0.9,0,1.6-0.7,1.6-1.7
	C129,27,128.3,26.2,127.4,26.2z"/>
<path class="st0" d="M133.7,30.3c-1.5,0-2.4-1-2.4-2.4c0-1.3,1-2.4,2.4-2.4c0.8,0,1.3,0.2,1.8,0.6l-0.5,0.6
	c-0.4-0.3-0.7-0.5-1.3-0.5c-0.9,0-1.5,0.8-1.5,1.7c0,1,0.6,1.7,1.6,1.7c0.4,0,0.8-0.1,1.1-0.4v-0.9h-1.2v-0.7h2v2
	C135.2,30,134.6,30.3,133.7,30.3z"/>
<path class="st0" d="M139.5,30.2h-0.8v-1.9l-1.9-2.8h1l1.3,2.1l1.3-2.1h0.9l-1.9,2.8V30.2z"/>
<g>
	<path class="st0" d="M39.6,20.2V7.6h2.8v10.1h6.3v2.5H39.6z"/>
	<path class="st0" d="M56,20.2V7.6h2.8v12.6H56z"/>
	<path class="st0" d="M69.7,10.1v2.7h6v2.5h-6v4.9h-2.8V7.6h9.6v2.5H69.7z"/>
	<path class="st0" d="M83.8,20.2V7.6h9.5V10h-6.8v2.6h5.9v2.5h-5.9v2.6h6.8v2.5H83.8z"/>
	<path class="st0" d="M106.9,20.2h-6V7.6h5.8c2.6,0,4.2,1.3,4.2,3.3v0c0,1.4-0.8,2.2-1.7,2.7c1.5,0.6,2.4,1.4,2.4,3.1v0
		C111.6,19,109.7,20.2,106.9,20.2z M108.1,11.3c0-0.8-0.6-1.3-1.8-1.3h-2.7v2.7h2.6C107.3,12.7,108.1,12.3,108.1,11.3L108.1,11.3z
		 M108.8,16.3c0-0.8-0.6-1.4-2.1-1.4h-3.2v2.8h3.3C108.1,17.7,108.8,17.3,108.8,16.3L108.8,16.3z"/>
	<path class="st0" d="M118.9,20.2V7.6h2.8v10.1h6.3v2.5H118.9z"/>
	<path class="st0" d="M140,20.4c-3.4,0-5.5-1.9-5.5-5.6V7.6h2.8v7.1c0,2.1,1,3.1,2.7,3.1c1.7,0,2.7-1,2.7-3V7.6h2.8v7.1
		C145.5,18.5,143.4,20.4,140,20.4z"/>
	<path class="st0" d="M153.4,20.2V7.6h9.5V10h-6.7v2.6h5.9v2.5h-5.9v2.6h6.8v2.5H153.4z"/>
</g>
</svg>
